<svg xmlns="http://www.w3.org/2000/svg" width="336" height="336" viewBox="0 0 336 336">
  <g id="Grupo_3" data-name="Grupo 3" transform="translate(-515 -216)">
    <g id="Elipse_1" data-name="Elipse 1" transform="translate(515 216)" fill="#bc2424" stroke="#3a3a3a" stroke-width="20">
      <circle cx="168" cy="168" r="168" stroke="none"/>
      <circle cx="168" cy="168" r="158" fill="none"/>
    </g>
    <g id="Sustracción_1" data-name="Sustracción 1" transform="translate(851 552) rotate(180)" fill="#efe2e2">
      <path d="M 325.6869506835938 158.0003051757813 L 10.312744140625 158.0003051757813 C 10.77368831634521 150.6347503662109 11.74272537231445 143.3185119628906 13.21016311645508 136.1472015380859 C 15.28516292572021 126.0071563720703 18.38121604919434 116.0333099365234 22.41237449645996 106.5027313232422 C 26.37137413024902 97.14262390136719 31.27195358276367 88.11409759521484 36.97811126708984 79.66799163818359 C 42.63190078735352 71.29925537109375 49.1251106262207 63.42951965332031 56.27732086181641 56.27736282348633 C 63.42984771728516 49.12483596801758 71.29958343505859 42.63167953491211 79.66795349121094 36.97815322875977 C 88.11431884765625 31.27194213867188 97.14284515380859 26.37131118774414 106.5027389526367 22.41236305236816 C 116.0334243774414 18.38115310668945 126.0072708129883 15.28509998321533 136.1472625732422 13.2101526260376 C 146.5567474365234 11.08004760742188 157.2736968994141 9.999994277954102 168.0003204345703 9.999994277954102 C 178.7269592285156 9.999994277954102 189.44384765625 11.08004760742188 199.8533782958984 13.2101526260376 C 209.9932708740234 15.28509998321533 219.9671173095703 18.38115310668945 229.4977416992188 22.41236305236816 C 238.8577880859375 26.37131118774414 247.8862152099609 31.27194213867188 256.3323059082031 36.97809982299805 C 264.7008056640625 42.63178253173828 272.5704650878906 49.12499618530273 279.7228393554688 56.27730941772461 C 286.8751525878906 63.42978286743164 293.3683166503906 71.29952239990234 299.0218505859375 79.66794586181641 C 304.7279663085938 88.11415100097656 309.6285400390625 97.14262390136719 313.5874328613281 106.5026245117188 C 317.6185913085938 116.0333633422852 320.7146301269531 126.0072021484375 322.7895202636719 136.1472015380859 C 324.2569580078125 143.3182525634766 325.2260131835938 150.6346588134766 325.6869506835938 158.0003051757813 Z" stroke="none"/>
      <path d="M 314.6604309082031 148.0003356933594 C 314.2146911621094 144.6920776367188 313.6583557128906 141.40576171875 312.9925231933594 138.1519622802734 C 311.0498962402344 128.6585235595703 308.1513366699219 119.3207778930664 304.3772888183594 110.3980255126953 C 300.6701049804688 101.6330261230469 296.0803527832031 93.17733764648438 290.7355346679688 85.26589965820313 C 285.4383544921875 77.42490386962891 279.3540954589844 70.05078125 272.6517333984375 63.34833908081055 C 265.9495239257813 56.64615249633789 258.5754699707031 50.5617790222168 250.7341003417969 45.26427841186523 C 242.8232269287109 39.91965103149414 234.3675994873047 35.32990264892578 225.6021575927734 31.62240219116211 C 216.6793518066406 27.84834098815918 207.3416595458984 24.94971466064453 197.8485412597656 23.00708961486816 C 188.097412109375 21.01171493530273 178.0550384521484 19.99996566772461 168.0002899169922 19.99996566772461 C 157.9456024169922 19.99996566772461 147.9032287597656 21.01171493530273 138.1520385742188 23.00708961486816 C 128.6588439941406 24.94971466064453 119.321159362793 27.84834098815918 110.3982238769531 31.62240219116211 C 101.6329116821289 35.32984161376953 93.17722320556641 39.91965103149414 85.26597595214844 45.264404296875 C 77.42503356933594 50.56158828735352 70.05091094970703 56.64596557617188 63.34834671020508 63.34846496582031 C 56.64622116088867 70.05059051513672 50.56184768676758 77.42471313476563 45.26434707641602 85.26609039306641 C 39.91965866088867 93.17721557617188 35.32984924316406 101.6328430175781 31.62240982055664 110.3982162475586 C 27.84834671020508 119.3210906982422 24.94978523254395 128.6588439941406 23.00716018676758 138.1519622802734 C 22.34134483337402 141.4057312011719 21.78503036499023 144.6920776367188 21.33929824829102 148.0003356933594 L 314.6604309082031 148.0003356933594 M 335.9997253417969 168.0003356933594 L 3.491211100481451e-05 168.0003356933594 C 3.491211100481451e-05 156.5997161865234 1.148722410202026 145.2085876464844 3.413159847259521 134.1424713134766 C 5.620472431182861 123.355842590332 8.914034843444824 112.7458419799805 13.20234775543213 102.6071548461914 C 17.4128475189209 92.65240478515625 22.6242847442627 83.05108642578125 28.69190979003906 74.06990051269531 C 34.70197296142578 65.17384338378906 41.60403442382813 56.80846405029297 49.20628356933594 49.20627593994141 C 56.80872344970703 41.60383987426758 65.17403411865234 34.70177841186523 74.06990814208984 28.69190216064453 C 83.05116271972656 22.62427711486816 92.65247344970703 17.41283988952637 102.6071624755859 13.2023401260376 C 112.7459716796875 8.913965225219727 123.3560333251953 5.620402812957764 134.1424713134766 3.413152694702148 C 145.2102203369141 1.148340106010437 156.6016540527344 -3.491211100481451e-05 168.0002899169922 -3.491211100481451e-05 C 179.3989715576172 -3.491211100481451e-05 190.7904052734375 1.148340106010437 201.8580932617188 3.413152694702148 C 212.64453125 5.620402812957764 223.2545318603516 8.913965225219727 233.3932800292969 13.2023401260376 C 243.3481597900391 17.41290283203125 252.9494171142578 22.62434005737305 261.930419921875 28.69190216064453 C 270.8262329101563 34.70183944702148 279.1915283203125 41.60383987426758 286.7939147949219 49.20627593994141 C 294.3962097167969 56.80865097045898 301.2982177734375 65.17396545410156 307.30810546875 74.06990051269531 C 313.3756713867188 83.05115509033203 318.5870971679688 92.6524658203125 322.7974853515625 102.6071548461914 C 327.0858459472656 112.745964050293 330.3792724609375 123.3559646606445 332.5865478515625 134.1424713134766 C 334.8513488769531 145.2102813720703 335.9997253417969 156.6017150878906 335.9997253417969 168.0003356933594 Z" stroke="none" fill="#3a3a3a"/>
    </g>
    <ellipse id="Elipse_3" data-name="Elipse 3" cx="35" cy="29" rx="35" ry="29" transform="translate(574 276)" fill="#efe2e2"/>
  </g>
</svg>
